<mxfile host="app.diagrams.net" modified="2021-04-30T07:59:06.250Z" agent="5.0 (Windows NT 10.0; Win64; x64) AppleWebKit/537.36 (KHTML, like Gecko) Chrome/90.0.4430.93 Safari/537.36" etag="p5hEz6xX-JEaabLqu-3x" version="14.6.9" type="github">
  <diagram id="Ut1-78RtzoVabGiUIiUZ" name="Page-1">
    <mxGraphModel dx="1695" dy="482" grid="1" gridSize="10" guides="1" tooltips="1" connect="1" arrows="1" fold="1" page="1" pageScale="1" pageWidth="827" pageHeight="1169" math="0" shadow="0">
      <root>
        <mxCell id="0" />
        <mxCell id="1" parent="0" />
        <mxCell id="Nnw-de1wehCAJsFXruUe-14" value="Booking" style="shape=table;startSize=30;container=1;collapsible=1;childLayout=tableLayout;fixedRows=1;rowLines=0;fontStyle=1;align=center;resizeLast=1;" vertex="1" parent="1">
          <mxGeometry x="314" y="30" width="200" height="260" as="geometry" />
        </mxCell>
        <mxCell id="Nnw-de1wehCAJsFXruUe-15" value="" style="shape=partialRectangle;collapsible=0;dropTarget=0;pointerEvents=0;fillColor=none;top=0;left=0;bottom=0;right=0;points=[[0,0.5],[1,0.5]];portConstraint=eastwest;" vertex="1" parent="Nnw-de1wehCAJsFXruUe-14">
          <mxGeometry y="30" width="200" height="30" as="geometry" />
        </mxCell>
        <mxCell id="Nnw-de1wehCAJsFXruUe-16" value="FK1" style="shape=partialRectangle;connectable=0;fillColor=none;top=0;left=0;bottom=0;right=0;fontStyle=1;overflow=hidden;" vertex="1" parent="Nnw-de1wehCAJsFXruUe-15">
          <mxGeometry width="60" height="30" as="geometry" />
        </mxCell>
        <mxCell id="Nnw-de1wehCAJsFXruUe-17" value="BookingID" style="shape=partialRectangle;connectable=0;fillColor=none;top=0;left=0;bottom=0;right=0;align=left;spacingLeft=6;fontStyle=5;overflow=hidden;" vertex="1" parent="Nnw-de1wehCAJsFXruUe-15">
          <mxGeometry x="60" width="140" height="30" as="geometry" />
        </mxCell>
        <mxCell id="Nnw-de1wehCAJsFXruUe-47" value="" style="shape=partialRectangle;collapsible=0;dropTarget=0;pointerEvents=0;fillColor=none;top=0;left=0;bottom=0;right=0;points=[[0,0.5],[1,0.5]];portConstraint=eastwest;" vertex="1" parent="Nnw-de1wehCAJsFXruUe-14">
          <mxGeometry y="60" width="200" height="30" as="geometry" />
        </mxCell>
        <mxCell id="Nnw-de1wehCAJsFXruUe-48" value="FK1" style="shape=partialRectangle;connectable=0;fillColor=none;top=0;left=0;bottom=0;right=0;fontStyle=1;overflow=hidden;" vertex="1" parent="Nnw-de1wehCAJsFXruUe-47">
          <mxGeometry width="60" height="30" as="geometry" />
        </mxCell>
        <mxCell id="Nnw-de1wehCAJsFXruUe-49" value="staff" style="shape=partialRectangle;connectable=0;fillColor=none;top=0;left=0;bottom=0;right=0;align=left;spacingLeft=6;fontStyle=5;overflow=hidden;" vertex="1" parent="Nnw-de1wehCAJsFXruUe-47">
          <mxGeometry x="60" width="140" height="30" as="geometry" />
        </mxCell>
        <mxCell id="Nnw-de1wehCAJsFXruUe-18" value="" style="shape=partialRectangle;collapsible=0;dropTarget=0;pointerEvents=0;fillColor=none;top=0;left=0;bottom=1;right=0;points=[[0,0.5],[1,0.5]];portConstraint=eastwest;" vertex="1" parent="Nnw-de1wehCAJsFXruUe-14">
          <mxGeometry y="90" width="200" height="30" as="geometry" />
        </mxCell>
        <mxCell id="Nnw-de1wehCAJsFXruUe-19" value="FK2" style="shape=partialRectangle;connectable=0;fillColor=none;top=0;left=0;bottom=0;right=0;fontStyle=1;overflow=hidden;" vertex="1" parent="Nnw-de1wehCAJsFXruUe-18">
          <mxGeometry width="60" height="30" as="geometry" />
        </mxCell>
        <mxCell id="Nnw-de1wehCAJsFXruUe-20" value="Row 2" style="shape=partialRectangle;connectable=0;fillColor=none;top=0;left=0;bottom=0;right=0;align=left;spacingLeft=6;fontStyle=5;overflow=hidden;" vertex="1" parent="Nnw-de1wehCAJsFXruUe-18">
          <mxGeometry x="60" width="140" height="30" as="geometry" />
        </mxCell>
        <mxCell id="Nnw-de1wehCAJsFXruUe-30" value="" style="shape=partialRectangle;collapsible=0;dropTarget=0;pointerEvents=0;fillColor=none;top=0;left=0;bottom=1;right=0;points=[[0,0.5],[1,0.5]];portConstraint=eastwest;" vertex="1" parent="Nnw-de1wehCAJsFXruUe-14">
          <mxGeometry y="120" width="200" height="30" as="geometry" />
        </mxCell>
        <mxCell id="Nnw-de1wehCAJsFXruUe-31" value="FK2" style="shape=partialRectangle;connectable=0;fillColor=none;top=0;left=0;bottom=0;right=0;fontStyle=1;overflow=hidden;" vertex="1" parent="Nnw-de1wehCAJsFXruUe-30">
          <mxGeometry width="60" height="30" as="geometry" />
        </mxCell>
        <mxCell id="Nnw-de1wehCAJsFXruUe-32" value="Row 2" style="shape=partialRectangle;connectable=0;fillColor=none;top=0;left=0;bottom=0;right=0;align=left;spacingLeft=6;fontStyle=5;overflow=hidden;" vertex="1" parent="Nnw-de1wehCAJsFXruUe-30">
          <mxGeometry x="60" width="140" height="30" as="geometry" />
        </mxCell>
        <mxCell id="Nnw-de1wehCAJsFXruUe-21" value="" style="shape=partialRectangle;collapsible=0;dropTarget=0;pointerEvents=0;fillColor=none;top=0;left=0;bottom=0;right=0;points=[[0,0.5],[1,0.5]];portConstraint=eastwest;" vertex="1" parent="Nnw-de1wehCAJsFXruUe-14">
          <mxGeometry y="150" width="200" height="30" as="geometry" />
        </mxCell>
        <mxCell id="Nnw-de1wehCAJsFXruUe-22" value="" style="shape=partialRectangle;connectable=0;fillColor=none;top=0;left=0;bottom=0;right=0;editable=1;overflow=hidden;" vertex="1" parent="Nnw-de1wehCAJsFXruUe-21">
          <mxGeometry width="60" height="30" as="geometry" />
        </mxCell>
        <mxCell id="Nnw-de1wehCAJsFXruUe-23" value="Row 3" style="shape=partialRectangle;connectable=0;fillColor=none;top=0;left=0;bottom=0;right=0;align=left;spacingLeft=6;overflow=hidden;" vertex="1" parent="Nnw-de1wehCAJsFXruUe-21">
          <mxGeometry x="60" width="140" height="30" as="geometry" />
        </mxCell>
        <mxCell id="Nnw-de1wehCAJsFXruUe-24" value="" style="shape=partialRectangle;collapsible=0;dropTarget=0;pointerEvents=0;fillColor=none;top=0;left=0;bottom=0;right=0;points=[[0,0.5],[1,0.5]];portConstraint=eastwest;" vertex="1" parent="Nnw-de1wehCAJsFXruUe-14">
          <mxGeometry y="180" width="200" height="30" as="geometry" />
        </mxCell>
        <mxCell id="Nnw-de1wehCAJsFXruUe-25" value="" style="shape=partialRectangle;connectable=0;fillColor=none;top=0;left=0;bottom=0;right=0;editable=1;overflow=hidden;" vertex="1" parent="Nnw-de1wehCAJsFXruUe-24">
          <mxGeometry width="60" height="30" as="geometry" />
        </mxCell>
        <mxCell id="Nnw-de1wehCAJsFXruUe-26" value="Row 4" style="shape=partialRectangle;connectable=0;fillColor=none;top=0;left=0;bottom=0;right=0;align=left;spacingLeft=6;overflow=hidden;" vertex="1" parent="Nnw-de1wehCAJsFXruUe-24">
          <mxGeometry x="60" width="140" height="30" as="geometry" />
        </mxCell>
        <mxCell id="Nnw-de1wehCAJsFXruUe-33" value="Staff" style="shape=table;startSize=30;container=1;collapsible=1;childLayout=tableLayout;fixedRows=1;rowLines=0;fontStyle=1;align=center;resizeLast=1;" vertex="1" parent="1">
          <mxGeometry x="30" y="110" width="180" height="160" as="geometry" />
        </mxCell>
        <mxCell id="Nnw-de1wehCAJsFXruUe-34" value="" style="shape=partialRectangle;collapsible=0;dropTarget=0;pointerEvents=0;fillColor=none;top=0;left=0;bottom=0;right=0;points=[[0,0.5],[1,0.5]];portConstraint=eastwest;" vertex="1" parent="Nnw-de1wehCAJsFXruUe-33">
          <mxGeometry y="30" width="180" height="30" as="geometry" />
        </mxCell>
        <mxCell id="Nnw-de1wehCAJsFXruUe-35" value="PK" style="shape=partialRectangle;connectable=0;fillColor=none;top=0;left=0;bottom=0;right=0;fontStyle=1;overflow=hidden;" vertex="1" parent="Nnw-de1wehCAJsFXruUe-34">
          <mxGeometry width="60" height="30" as="geometry" />
        </mxCell>
        <mxCell id="Nnw-de1wehCAJsFXruUe-36" value="staffID" style="shape=partialRectangle;connectable=0;fillColor=none;top=0;left=0;bottom=0;right=0;align=left;spacingLeft=6;fontStyle=5;overflow=hidden;" vertex="1" parent="Nnw-de1wehCAJsFXruUe-34">
          <mxGeometry x="60" width="120" height="30" as="geometry" />
        </mxCell>
        <mxCell id="Nnw-de1wehCAJsFXruUe-37" value="" style="shape=partialRectangle;collapsible=0;dropTarget=0;pointerEvents=0;fillColor=none;top=0;left=0;bottom=1;right=0;points=[[0,0.5],[1,0.5]];portConstraint=eastwest;" vertex="1" parent="Nnw-de1wehCAJsFXruUe-33">
          <mxGeometry y="60" width="180" height="30" as="geometry" />
        </mxCell>
        <mxCell id="Nnw-de1wehCAJsFXruUe-38" value="FK2" style="shape=partialRectangle;connectable=0;fillColor=none;top=0;left=0;bottom=0;right=0;fontStyle=1;overflow=hidden;" vertex="1" parent="Nnw-de1wehCAJsFXruUe-37">
          <mxGeometry width="60" height="30" as="geometry" />
        </mxCell>
        <mxCell id="Nnw-de1wehCAJsFXruUe-39" value="staffLocation" style="shape=partialRectangle;connectable=0;fillColor=none;top=0;left=0;bottom=0;right=0;align=left;spacingLeft=6;fontStyle=5;overflow=hidden;" vertex="1" parent="Nnw-de1wehCAJsFXruUe-37">
          <mxGeometry x="60" width="120" height="30" as="geometry" />
        </mxCell>
        <mxCell id="Nnw-de1wehCAJsFXruUe-40" value="" style="shape=partialRectangle;collapsible=0;dropTarget=0;pointerEvents=0;fillColor=none;top=0;left=0;bottom=0;right=0;points=[[0,0.5],[1,0.5]];portConstraint=eastwest;" vertex="1" parent="Nnw-de1wehCAJsFXruUe-33">
          <mxGeometry y="90" width="180" height="30" as="geometry" />
        </mxCell>
        <mxCell id="Nnw-de1wehCAJsFXruUe-41" value="" style="shape=partialRectangle;connectable=0;fillColor=none;top=0;left=0;bottom=0;right=0;editable=1;overflow=hidden;" vertex="1" parent="Nnw-de1wehCAJsFXruUe-40">
          <mxGeometry width="60" height="30" as="geometry" />
        </mxCell>
        <mxCell id="Nnw-de1wehCAJsFXruUe-42" value="staffName" style="shape=partialRectangle;connectable=0;fillColor=none;top=0;left=0;bottom=0;right=0;align=left;spacingLeft=6;overflow=hidden;" vertex="1" parent="Nnw-de1wehCAJsFXruUe-40">
          <mxGeometry x="60" width="120" height="30" as="geometry" />
        </mxCell>
        <mxCell id="Nnw-de1wehCAJsFXruUe-43" value="" style="shape=partialRectangle;collapsible=0;dropTarget=0;pointerEvents=0;fillColor=none;top=0;left=0;bottom=0;right=0;points=[[0,0.5],[1,0.5]];portConstraint=eastwest;" vertex="1" parent="Nnw-de1wehCAJsFXruUe-33">
          <mxGeometry y="120" width="180" height="30" as="geometry" />
        </mxCell>
        <mxCell id="Nnw-de1wehCAJsFXruUe-44" value="" style="shape=partialRectangle;connectable=0;fillColor=none;top=0;left=0;bottom=0;right=0;editable=1;overflow=hidden;" vertex="1" parent="Nnw-de1wehCAJsFXruUe-43">
          <mxGeometry width="60" height="30" as="geometry" />
        </mxCell>
        <mxCell id="Nnw-de1wehCAJsFXruUe-45" value="Row 4" style="shape=partialRectangle;connectable=0;fillColor=none;top=0;left=0;bottom=0;right=0;align=left;spacingLeft=6;overflow=hidden;" vertex="1" parent="Nnw-de1wehCAJsFXruUe-43">
          <mxGeometry x="60" width="120" height="30" as="geometry" />
        </mxCell>
        <mxCell id="Nnw-de1wehCAJsFXruUe-46" value="" style="edgeStyle=entityRelationEdgeStyle;fontSize=12;html=1;endArrow=ERoneToMany;entryX=-0.035;entryY=0.433;entryDx=0;entryDy=0;entryPerimeter=0;" edge="1" parent="1" target="Nnw-de1wehCAJsFXruUe-47">
          <mxGeometry width="100" height="100" relative="1" as="geometry">
            <mxPoint x="220" y="150" as="sourcePoint" />
            <mxPoint x="310" y="100" as="targetPoint" />
          </mxGeometry>
        </mxCell>
        <mxCell id="Nnw-de1wehCAJsFXruUe-50" value="Location" style="shape=table;startSize=30;container=1;collapsible=1;childLayout=tableLayout;fixedRows=1;rowLines=0;fontStyle=1;align=center;resizeLast=1;" vertex="1" parent="1">
          <mxGeometry x="10" y="360" width="180" height="130" as="geometry" />
        </mxCell>
        <mxCell id="Nnw-de1wehCAJsFXruUe-51" value="" style="shape=partialRectangle;collapsible=0;dropTarget=0;pointerEvents=0;fillColor=none;top=0;left=0;bottom=1;right=0;points=[[0,0.5],[1,0.5]];portConstraint=eastwest;" vertex="1" parent="Nnw-de1wehCAJsFXruUe-50">
          <mxGeometry y="30" width="180" height="30" as="geometry" />
        </mxCell>
        <mxCell id="Nnw-de1wehCAJsFXruUe-52" value="PK" style="shape=partialRectangle;connectable=0;fillColor=none;top=0;left=0;bottom=0;right=0;fontStyle=1;overflow=hidden;" vertex="1" parent="Nnw-de1wehCAJsFXruUe-51">
          <mxGeometry width="30" height="30" as="geometry" />
        </mxCell>
        <mxCell id="Nnw-de1wehCAJsFXruUe-53" value="LocationID" style="shape=partialRectangle;connectable=0;fillColor=none;top=0;left=0;bottom=0;right=0;align=left;spacingLeft=6;fontStyle=5;overflow=hidden;" vertex="1" parent="Nnw-de1wehCAJsFXruUe-51">
          <mxGeometry x="30" width="150" height="30" as="geometry" />
        </mxCell>
        <mxCell id="Nnw-de1wehCAJsFXruUe-54" value="" style="shape=partialRectangle;collapsible=0;dropTarget=0;pointerEvents=0;fillColor=none;top=0;left=0;bottom=0;right=0;points=[[0,0.5],[1,0.5]];portConstraint=eastwest;" vertex="1" parent="Nnw-de1wehCAJsFXruUe-50">
          <mxGeometry y="60" width="180" height="30" as="geometry" />
        </mxCell>
        <mxCell id="Nnw-de1wehCAJsFXruUe-55" value="" style="shape=partialRectangle;connectable=0;fillColor=none;top=0;left=0;bottom=0;right=0;editable=1;overflow=hidden;" vertex="1" parent="Nnw-de1wehCAJsFXruUe-54">
          <mxGeometry width="30" height="30" as="geometry" />
        </mxCell>
        <mxCell id="Nnw-de1wehCAJsFXruUe-56" value="LocationName" style="shape=partialRectangle;connectable=0;fillColor=none;top=0;left=0;bottom=0;right=0;align=left;spacingLeft=6;overflow=hidden;" vertex="1" parent="Nnw-de1wehCAJsFXruUe-54">
          <mxGeometry x="30" width="150" height="30" as="geometry" />
        </mxCell>
        <mxCell id="Nnw-de1wehCAJsFXruUe-57" value="" style="shape=partialRectangle;collapsible=0;dropTarget=0;pointerEvents=0;fillColor=none;top=0;left=0;bottom=0;right=0;points=[[0,0.5],[1,0.5]];portConstraint=eastwest;" vertex="1" parent="Nnw-de1wehCAJsFXruUe-50">
          <mxGeometry y="90" width="180" height="30" as="geometry" />
        </mxCell>
        <mxCell id="Nnw-de1wehCAJsFXruUe-58" value="" style="shape=partialRectangle;connectable=0;fillColor=none;top=0;left=0;bottom=0;right=0;editable=1;overflow=hidden;" vertex="1" parent="Nnw-de1wehCAJsFXruUe-57">
          <mxGeometry width="30" height="30" as="geometry" />
        </mxCell>
        <mxCell id="Nnw-de1wehCAJsFXruUe-59" value="" style="shape=partialRectangle;connectable=0;fillColor=none;top=0;left=0;bottom=0;right=0;align=left;spacingLeft=6;overflow=hidden;" vertex="1" parent="Nnw-de1wehCAJsFXruUe-57">
          <mxGeometry x="30" width="150" height="30" as="geometry" />
        </mxCell>
        <mxCell id="Nnw-de1wehCAJsFXruUe-63" value="" style="edgeStyle=entityRelationEdgeStyle;fontSize=12;html=1;endArrow=ERoneToMany;exitX=1.039;exitY=0.467;exitDx=0;exitDy=0;exitPerimeter=0;" edge="1" parent="1" source="Nnw-de1wehCAJsFXruUe-51">
          <mxGeometry width="100" height="100" relative="1" as="geometry">
            <mxPoint x="210" y="480" as="sourcePoint" />
            <mxPoint x="23" y="183" as="targetPoint" />
          </mxGeometry>
        </mxCell>
      </root>
    </mxGraphModel>
  </diagram>
</mxfile>
